<svg xmlns="http://www.w3.org/2000/svg" viewBox="0 0 577.32 93.51"><defs><style>.cls-1{fill:#80bc00;}.cls-2{fill:#2d2a26;}</style></defs><title>logo-gree</title><g id="Objects"><path class="cls-1" d="M358.5,385c-2.93-.42-5.9-.67-8.81-1.23a16.13,16.13,0,0,0,.23-4.48L365.83,374a1,1,0,0,0,.67-1,1,1,0,0,0-.25-.61l-9.94-11.09a193.61,193.61,0,0,1-41.87,41.8l9.71,8.58a1,1,0,0,0,1.57-.43l5.17-16a24.68,24.68,0,0,0,6,.18c.69,3.22.95,6.52,1.42,9.74,9.9,0,18.5,4.34,27.44,8.21-.22-.28-.29-.39-.38-.48q-7.35-7.35-14.73-14.7l-1-.95a1.58,1.58,0,0,0-1.2-.25,2.68,2.68,0,0,1-2.85-1.14,2.58,2.58,0,0,1,3.27-3.68,2.46,2.46,0,0,1,1.38,2.81,1.45,1.45,0,0,0,.53,1.58l.73.72,14.34,14.33.66.66a3.67,3.67,0,0,0-.4-1.35C362.39,402.69,358.53,394.4,358.5,385Z" transform="translate(-123.08 -319.95)"/><path class="cls-1" d="M359.62,328.54c-5.79-5.79-20.53-1-36.62,10.83,10.49-6.76,19.64-9.12,23.52-5.25,3.69,3.69,1.71,12.18-4.32,22.05l-4.38-1.05a108.33,108.33,0,0,0-8.78-9.71c-32.16-29.87-55.86-25.31-56.86-25.1a1,1,0,0,0-.75.77,21.87,21.87,0,0,0-.19,4.43c.32,8.52,4,26.07,24.92,47.91a115,115,0,0,0,10.92,10.09l1.34,6.16c-9.57,5.71-17.75,7.52-21.36,3.91-3.88-3.87-1.51-13,5.24-23.52-11.81,16.09-16.61,30.84-10.83,36.62s20,1.17,35.68-10.14a148.33,148.33,0,0,0,32.19-32.13C360.75,348.61,365.32,334.23,359.62,328.54ZM301,358a9.78,9.78,0,1,1,10.13,9.41A9.77,9.77,0,0,1,301,358Z" transform="translate(-123.08 -319.95)"/><circle class="cls-1" cx="187.69" cy="37.65" r="4.7"/><path class="cls-2" d="M162.23,356.65a37.74,37.74,0,0,0,.19,4.36H161q-2-7.93-5.15-11.45T149.08,346H149v34.67a9.57,9.57,0,0,0,.52,3.7,2.74,2.74,0,0,0,1.88,1.54,16.63,16.63,0,0,0,4.33.4v1.21q-8.55-.18-13.27-.18-4.3,0-12.49.18v-1.21a16.68,16.68,0,0,0,4.33-.4,2.74,2.74,0,0,0,1.88-1.54,9.57,9.57,0,0,0,.52-3.7V346h-.06q-3.71,0-6.82,3.49T124.72,361h-1.4a40.17,40.17,0,0,0,.19-4.36q0-5.28-.43-12,5.76.18,19.82.18t19.76-.18Q162.24,351.37,162.23,356.65Z" transform="translate(-123.08 -319.95)"/><path class="cls-2" d="M209.78,346.34a2.05,2.05,0,0,0-1.18,1.4,13.17,13.17,0,0,0-.3,3.33v30.06a12.05,12.05,0,0,0,.33,3.34,2.11,2.11,0,0,0,1.18,1.39,9.23,9.23,0,0,0,2.79.49v1.21c-2.18-.12-5.58-.18-10.18-.18s-8.23.06-10.73.18v-1.21a9.6,9.6,0,0,0,2.82-.49,2,2,0,0,0,1.18-1.39,13.21,13.21,0,0,0,.3-3.34V366.59H182.36v14.54a12.05,12.05,0,0,0,.33,3.34,2.09,2.09,0,0,0,1.18,1.39,9.23,9.23,0,0,0,2.79.49v1.21c-2.34-.12-5.72-.18-10.12-.18q-7.33,0-10.79.18v-1.21a9.6,9.6,0,0,0,2.82-.49,2,2,0,0,0,1.18-1.39,13.21,13.21,0,0,0,.3-3.34V351.07a12,12,0,0,0-.33-3.33,2.15,2.15,0,0,0-1.18-1.4,9.29,9.29,0,0,0-2.79-.48v-1.21q3.45.18,10.79.18,6.54,0,10.12-.18v1.21a9.67,9.67,0,0,0-2.82.48,2,2,0,0,0-1.18,1.4,13.17,13.17,0,0,0-.3,3.33v14.31H196V351.07a12,12,0,0,0-.33-3.33,2.15,2.15,0,0,0-1.18-1.4,9.29,9.29,0,0,0-2.79-.48v-1.21q3.75.18,10.73.18c4.6,0,8-.06,10.18-.18v1.21A9.67,9.67,0,0,0,209.78,346.34Z" transform="translate(-123.08 -319.95)"/><path class="cls-2" d="M251.09,387.56q-4.12-.18-13.88-.18-14.19,0-21.22.18v-1.21a9.47,9.47,0,0,0,2.82-.49,2,2,0,0,0,1.18-1.39,12.65,12.65,0,0,0,.31-3.34V351.07a11.56,11.56,0,0,0-.34-3.33,2.13,2.13,0,0,0-1.18-1.4,9.23,9.23,0,0,0-2.79-.48v-1.21q7,.18,21.22.18,8.91,0,12.66-.18-.42,5.7-.42,10.18a40.64,40.64,0,0,0,.18,4.36h-1.39q-1.1-7-4.06-10.09a9.55,9.55,0,0,0-7.09-3.06h-.79a7.79,7.79,0,0,0-2.4.27,1.67,1.67,0,0,0-1,1,8.33,8.33,0,0,0-.27,2.52v15.52h.61a7,7,0,0,0,5.39-2.49,11.61,11.61,0,0,0,2.85-5.51h1.39c-.12,1.69-.18,3.59-.18,5.69V366q0,3.09.36,8.61h-1.39a10.07,10.07,0,0,0-2.82-5.73,7.62,7.62,0,0,0-5.6-2.27h-.61v15.76a8.21,8.21,0,0,0,.27,2.51,1.62,1.62,0,0,0,1,1,7.79,7.79,0,0,0,2.4.27h2q3.51,0,6.66-3.42t4.49-10.94h1.39c-.12,1.46-.18,3.31-.18,5.58A97.58,97.58,0,0,0,251.09,387.56Z" transform="translate(-123.08 -319.95)"/><path class="cls-2" d="M432.57,381.68a23.83,23.83,0,0,1-1.42,6.85,9.86,9.86,0,0,1-3,4.3,9.58,9.58,0,0,1-3.37,1.58,16.31,16.31,0,0,1-4.21.54,22.9,22.9,0,0,1-7.21-1.15,95.21,95.21,0,0,1-8.91-3.57l-4-1.7a6.52,6.52,0,0,0-1.46-.43,13.32,13.32,0,0,1-2.57,1.09,8.33,8.33,0,0,1-2.52.43,4,4,0,0,1-2.06-.46,1.46,1.46,0,0,1-.79-1.36,1.51,1.51,0,0,1,.85-1.39,5,5,0,0,1,2.49-.49A11.66,11.66,0,0,1,399,387a28.15,28.15,0,0,0,4.55-1.63c.36-.12.78-.29,1.24-.49s1-.4,1.61-.6A24.54,24.54,0,0,1,395.93,381a18.45,18.45,0,0,1-6.88-7.45,23.94,23.94,0,0,1-2.42-11,23.59,23.59,0,0,1,2.91-11.82,20.3,20.3,0,0,1,8.12-8,24.33,24.33,0,0,1,11.88-2.85,26.38,26.38,0,0,1,12,2.6,18.93,18.93,0,0,1,8,7.55,23.19,23.19,0,0,1,2.85,11.79,23.86,23.86,0,0,1-2.79,11.64,20.25,20.25,0,0,1-7.82,8,24.13,24.13,0,0,1-11.51,3.06,15.1,15.1,0,0,0-2.7.6c-.87.29-1.69.59-2.46.91a38.2,38.2,0,0,1-4,1.4l2.37.06q5.2.18,8.85.18a50.85,50.85,0,0,0,10.3-.85,17.76,17.76,0,0,0,5.33-1.88,10.82,10.82,0,0,0,3.46-3.45Zm-31.82-8.36a18.61,18.61,0,0,0,3.76,7.39,6.94,6.94,0,0,0,5.21,2.61,6.71,6.71,0,0,0,5.24-2.7,18.55,18.55,0,0,0,3.49-7.55A45.81,45.81,0,0,0,419.66,362a40.15,40.15,0,0,0-1.39-11.09,18.67,18.67,0,0,0-3.76-7.39,7,7,0,0,0-5.21-2.61,6.74,6.74,0,0,0-5.25,2.7,18.63,18.63,0,0,0-3.48,7.54,45.87,45.87,0,0,0-1.21,11.09A39.85,39.85,0,0,0,400.75,373.32Z" transform="translate(-123.08 -319.95)"/><path class="cls-2" d="M475.54,341.86a5.86,5.86,0,0,0-2.79,1.3,4.79,4.79,0,0,0-1.21,2.7,36.35,36.35,0,0,0-.3,5.45v14.61q0,8.73-2.49,12.85a10.52,10.52,0,0,1-4.81,4.18,19.9,19.9,0,0,1-8.22,1.46q-7.34,0-11.39-2.91a10.16,10.16,0,0,1-4-5.7,37.27,37.27,0,0,1-1-9.7v-19a13.17,13.17,0,0,0-.3-3.33,2.06,2.06,0,0,0-1.19-1.4,9.52,9.52,0,0,0-2.81-.48v-1.21q3.45.18,10.66.18t10.85-.18v1.21a12.23,12.23,0,0,0-3.18.48,2.18,2.18,0,0,0-1.36,1.4,10.68,10.68,0,0,0-.37,3.33V371.8q0,5.82,1.82,8.15t5.76,2.34q5.76,0,8.18-4.1t2.42-11.6V352.53a40.48,40.48,0,0,0-.36-6.46,4.41,4.41,0,0,0-1.6-2.88,9.75,9.75,0,0,0-4.16-1.33v-1.21q2.49.18,6.79.18c2.14,0,3.82-.06,5-.18Z" transform="translate(-123.08 -319.95)"/><path class="cls-2" d="M514.66,381.35a3,3,0,0,0,1.85,1v1.21c-2.91-.12-6.58-.18-11-.18-4.6,0-8,.06-10.18.18v-1.21a9.6,9.6,0,0,0,3.27-.58,1.62,1.62,0,0,0,1-1.61,8.53,8.53,0,0,0-.72-2.91l-3.58-9.93H483L482,370a23.9,23.9,0,0,0-2,7.88c0,1.66.46,2.79,1.39,3.4a8.34,8.34,0,0,0,4.12,1v1.21q-4.55-.18-7.94-.18c-1.9,0-3.45.06-4.66.18v-1.21a4.72,4.72,0,0,0,2.84-1.88,20.06,20.06,0,0,0,2.73-5.22l13.46-34.6q1.93.12,3.21.12t3.15-.12l14.67,37.82A8.81,8.81,0,0,0,514.66,381.35ZM494.81,366.1,489.3,351l-5.82,15.15Z" transform="translate(-123.08 -319.95)"/><path class="cls-2" d="M557.79,341.86a5.86,5.86,0,0,0-2.79,1.3,4.72,4.72,0,0,0-1.21,2.7,36.06,36.06,0,0,0-.31,5.45v32.25c-.8-.08-1.47-.12-2-.12s-1.19,0-2.24.12l-26.85-29.34v17.46a38.8,38.8,0,0,0,.37,6.45,4.32,4.32,0,0,0,1.6,2.88,9.68,9.68,0,0,0,4.15,1.34v1.21c-1.65-.12-3.92-.18-6.78-.18-2.15,0-3.82.06-5,.18v-1.21a5.77,5.77,0,0,0,2.79-1.31,4.73,4.73,0,0,0,1.22-2.69,36.5,36.5,0,0,0,.3-5.46V347.07a11.56,11.56,0,0,0-.34-3.33,2.13,2.13,0,0,0-1.18-1.4,9.17,9.17,0,0,0-2.79-.48v-1.21c1.22.12,2.89.18,5,.18s4-.06,5.57-.18l24.79,26.18v-14.3a40.48,40.48,0,0,0-.36-6.46,4.42,4.42,0,0,0-1.61-2.88,9.7,9.7,0,0,0-4.15-1.33v-1.21q2.49.18,6.79.18c2.14,0,3.82-.06,5-.18Z" transform="translate(-123.08 -319.95)"/><path class="cls-2" d="M599.79,352.65A40.64,40.64,0,0,0,600,357h-1.39q-2-7.93-5.15-11.45T586.64,342h-.06v34.67a9.81,9.81,0,0,0,.51,3.7A2.77,2.77,0,0,0,589,382a16.68,16.68,0,0,0,4.33.4v1.21q-8.53-.18-13.27-.18-4.31,0-12.48.18v-1.21a16.73,16.73,0,0,0,4.33-.4,2.79,2.79,0,0,0,1.88-1.54,9.81,9.81,0,0,0,.51-3.7V342h-.06c-2.46,0-4.74,1.16-6.82,3.49s-3.78,6.15-5.12,11.48h-1.39a40.64,40.64,0,0,0,.18-4.36q0-5.28-.42-12,5.75.18,19.81.18t19.76-.18Q599.79,347.37,599.79,352.65Z" transform="translate(-123.08 -319.95)"/><path class="cls-2" d="M642.88,341.86a5.86,5.86,0,0,0-2.79,1.3,4.79,4.79,0,0,0-1.21,2.7,36.35,36.35,0,0,0-.3,5.45v14.61q0,8.73-2.49,12.85a10.52,10.52,0,0,1-4.81,4.18,19.9,19.9,0,0,1-8.22,1.46q-7.34,0-11.39-2.91a10.21,10.21,0,0,1-4-5.7,37.27,37.27,0,0,1-1-9.7v-19a13.17,13.17,0,0,0-.3-3.33,2.06,2.06,0,0,0-1.19-1.4,9.52,9.52,0,0,0-2.81-.48v-1.21q3.45.18,10.66.18t10.85-.18v1.21a12.23,12.23,0,0,0-3.18.48,2.18,2.18,0,0,0-1.36,1.4,10.68,10.68,0,0,0-.37,3.33V371.8q0,5.82,1.82,8.15t5.76,2.34q5.76,0,8.18-4.1t2.42-11.6V352.53a40.48,40.48,0,0,0-.36-6.46,4.41,4.41,0,0,0-1.6-2.88,9.75,9.75,0,0,0-4.16-1.33v-1.21q2.49.18,6.79.18c2.14,0,3.82-.06,5-.18Z" transform="translate(-123.08 -319.95)"/><path class="cls-2" d="M697.58,342.34a2,2,0,0,0-1.18,1.4,13.17,13.17,0,0,0-.3,3.33v30.06a12.05,12.05,0,0,0,.33,3.34,2.11,2.11,0,0,0,1.18,1.39,9.23,9.23,0,0,0,2.79.49v1.21c-2.47-.12-6-.18-10.73-.18-4.89,0-8.48.06-10.79.18v-1.21a12,12,0,0,0,3.18-.49,2.18,2.18,0,0,0,1.37-1.39,11.09,11.09,0,0,0,.36-3.34v-31l-14.6,37.34h-1l-17.1-38.91v27.09a40,40,0,0,0,.37,6.45,4.36,4.36,0,0,0,1.6,2.88,9.73,9.73,0,0,0,4.16,1.34v1.21q-2.49-.18-6.79-.18c-2.14,0-3.82.06-5,.18v-1.21a5.77,5.77,0,0,0,2.78-1.31,4.73,4.73,0,0,0,1.22-2.69,36.5,36.5,0,0,0,.3-5.46V347.07a12,12,0,0,0-.33-3.33,2.17,2.17,0,0,0-1.19-1.4,9.15,9.15,0,0,0-2.78-.48v-1.21c1.21.12,2.89.18,5,.18q7.27,0,12.54-.18l11.46,25.76,9.94-25.58h5.27c4.69,0,8.26-.06,10.73-.18v1.21A9.67,9.67,0,0,0,697.58,342.34Z" transform="translate(-123.08 -319.95)"/></g></svg>